<svg xmlns="http://www.w3.org/2000/svg" preserveAspectRatio="none" width="525" height="394" viewBox="0 0 8 6" style="background:rgba(119,130,145,1);"><rect x="0" y="0" width="1" height="1" stroke="none" fill="rgba(98,157,219,1)" /><rect x="0" y="1" width="1" height="1" stroke="none" fill="rgba(138,179,219,1)" /><rect x="0" y="2" width="1" height="1" stroke="none" fill="rgba(144,174,204,1)" /><rect x="0" y="3" width="1" height="1" stroke="none" fill="rgba(145,182,206,1)" /><rect x="0" y="4" width="1" height="1" stroke="none" fill="rgba(150,105,88,1)" /><rect x="0" y="5" width="1" height="1" stroke="none" fill="rgba(114,74,26,1)" /><rect x="1" y="0" width="1" height="1" stroke="none" fill="rgba(99,158,219,1)" /><rect x="1" y="1" width="1" height="1" stroke="none" fill="rgba(137,180,223,1)" /><rect x="1" y="2" width="1" height="1" stroke="none" fill="rgba(145,178,207,1)" /><rect x="1" y="3" width="1" height="1" stroke="none" fill="rgba(134,137,146,1)" /><rect x="1" y="4" width="1" height="1" stroke="none" fill="rgba(150,71,38,1)" /><rect x="1" y="5" width="1" height="1" stroke="none" fill="rgba(116,73,24,1)" /><rect x="2" y="0" width="1" height="1" stroke="none" fill="rgba(101,159,220,1)" /><rect x="2" y="1" width="1" height="1" stroke="none" fill="rgba(141,186,229,1)" /><rect x="2" y="2" width="1" height="1" stroke="none" fill="rgba(146,180,212,1)" /><rect x="2" y="3" width="1" height="1" stroke="none" fill="rgba(133,119,120,1)" /><rect x="2" y="4" width="1" height="1" stroke="none" fill="rgba(142,61,29,1)" /><rect x="2" y="5" width="1" height="1" stroke="none" fill="rgba(113,72,24,1)" /><rect x="3" y="0" width="1" height="1" stroke="none" fill="rgba(98,159,222,1)" /><rect x="3" y="1" width="1" height="1" stroke="none" fill="rgba(136,185,233,1)" /><rect x="3" y="2" width="1" height="1" stroke="none" fill="rgba(139,136,142,1)" /><rect x="3" y="3" width="1" height="1" stroke="none" fill="rgba(110,56,38,1)" /><rect x="3" y="4" width="1" height="1" stroke="none" fill="rgba(126,57,30,1)" /><rect x="3" y="5" width="1" height="1" stroke="none" fill="rgba(114,75,24,1)" /><rect x="4" y="0" width="1" height="1" stroke="none" fill="rgba(95,159,224,1)" /><rect x="4" y="1" width="1" height="1" stroke="none" fill="rgba(128,183,235,1)" /><rect x="4" y="2" width="1" height="1" stroke="none" fill="rgba(126,153,181,1)" /><rect x="4" y="3" width="1" height="1" stroke="none" fill="rgba(38,27,40,1)" /><rect x="4" y="4" width="1" height="1" stroke="none" fill="rgba(90,47,35,1)" /><rect x="4" y="5" width="1" height="1" stroke="none" fill="rgba(115,77,23,1)" /><rect x="5" y="0" width="1" height="1" stroke="none" fill="rgba(96,162,226,1)" /><rect x="5" y="1" width="1" height="1" stroke="none" fill="rgba(122,181,236,1)" /><rect x="5" y="2" width="1" height="1" stroke="none" fill="rgba(144,191,228,1)" /><rect x="5" y="3" width="1" height="1" stroke="none" fill="rgba(51,43,55,1)" /><rect x="5" y="4" width="1" height="1" stroke="none" fill="rgba(67,41,39,1)" /><rect x="5" y="5" width="1" height="1" stroke="none" fill="rgba(117,81,24,1)" /><rect x="6" y="0" width="1" height="1" stroke="none" fill="rgba(97,164,230,1)" /><rect x="6" y="1" width="1" height="1" stroke="none" fill="rgba(117,179,237,1)" /><rect x="6" y="2" width="1" height="1" stroke="none" fill="rgba(137,190,234,1)" /><rect x="6" y="3" width="1" height="1" stroke="none" fill="rgba(125,166,195,1)" /><rect x="6" y="4" width="1" height="1" stroke="none" fill="rgba(89,83,87,1)" /><rect x="6" y="5" width="1" height="1" stroke="none" fill="rgba(118,84,26,1)" /><rect x="7" y="0" width="1" height="1" stroke="none" fill="rgba(97,165,233,1)" /><rect x="7" y="1" width="1" height="1" stroke="none" fill="rgba(117,180,240,1)" /><rect x="7" y="2" width="1" height="1" stroke="none" fill="rgba(143,197,240,1)" /><rect x="7" y="3" width="1" height="1" stroke="none" fill="rgba(192,212,224,1)" /><rect x="7" y="4" width="1" height="1" stroke="none" fill="rgba(96,88,92,1)" /><rect x="7" y="5" width="1" height="1" stroke="none" fill="rgba(115,83,24,1)" /></svg>
